<?xml version="1.0" encoding="UTF-8"?>
<svg id="_图层_2" data-name="图层 2" xmlns="http://www.w3.org/2000/svg" viewBox="0 0 91.12 128">
  <g id="_路程" data-name="路程">
    <g>
      <path d="m8.44,7.53h5.22v30.83h.17l13.19-16.35h5.88l-10.37,12.55,11.74,18.56h-5.75l-9.07-14.95-5.79,6.74v8.21h-5.22V7.53Z" style="fill: #fff; stroke-width: 0px;"/>
      <path d="m40.12,22.01h4.35l.44,4.51h.17c2.72-2.94,5.98-5.28,9.68-5.28,4.76,0,7.31,2.28,8.59,5.93,3.23-3.5,6.47-5.93,10.26-5.93,6.39,0,9.46,4.23,9.46,12.17v19.71h-5.26v-19.03c0-5.79-1.83-8.27-5.79-8.27-2.41,0-4.92,1.58-7.8,4.78v22.53h-5.26v-19.03c0-5.79-1.83-8.27-5.79-8.27-2.33,0-4.92,1.58-7.79,4.78v22.53h-5.26v-31.11Z" style="fill: #fff; stroke-width: 0px;"/>
    </g>
    <line x1="42.62" y1="53" x2="42.62" y2="128" style="fill: none; stroke: #fff; stroke-miterlimit: 10; stroke-width: 5px;"/>
  </g>
</svg>